<?xml version="1.0" encoding="utf-8"?>
<!-- Generator: Adobe Illustrator 18.0.0, SVG Export Plug-In . SVG Version: 6.00 Build 0)  -->
<!DOCTYPE svg PUBLIC "-//W3C//DTD SVG 1.1//EN" "http://www.w3.org/Graphics/SVG/1.1/DTD/svg11.dtd">
<svg version="1.1" id="Layer_1" xmlns="http://www.w3.org/2000/svg" xmlns:xlink="http://www.w3.org/1999/xlink" x="0px" y="0px"
	 viewBox="0 0 52.5 52.5" enable-background="new 0 0 52.5 52.5" xml:space="preserve">
<circle fill="#F05A22" cx="26.4" cy="26.2" r="25.1"/>
<path fill="#F1F1F2" d="M26.4,12.8c-7.4,0-13.5,6.1-13.5,13.5s6.1,13.5,13.5,13.5c7.4,0,13.5-6.1,13.5-13.5S33.8,12.8,26.4,12.8z
	 M26.4,37.4c-6.2,0-11.2-5-11.2-11.2c0-6.2,5-11.2,11.2-11.2c6.2,0,11.2,5,11.2,11.2C37.5,32.4,32.5,37.4,26.4,37.4z"/>
<circle fill="#3FE1BF" cx="26.4" cy="26.2" r="25.4"/>
<g>
	<path fill="#F1F1F2" d="M30.8,13.7C29.5,13.2,28,13,26.6,13l-0.3,0c-1.9,0-3.7,0.4-5.5,1.2c-3.4,1.5-5.9,4.2-7.3,7.6
		c-1.3,3.4-1.2,7.2,0.3,10.5c2.2,5,7.1,8.2,12.6,8.2c1.9,0,3.8-0.4,5.5-1.2c3.3-1.5,5.9-4.2,7.2-7.6c1.3-3.4,1.2-7.2-0.2-10.5
		c-0.2-0.5-0.9-0.8-1.5-0.6c-0.3,0.1-0.5,0.3-0.6,0.6c-0.1,0.3-0.1,0.6,0,0.9c2.6,5.8-0.1,12.6-5.9,15.2c-2.8,1.2-6,1.3-8.8,0.2
		c-2.9-1.1-5.1-3.3-6.4-6.1c-1.2-2.8-1.3-5.9-0.2-8.8s3.3-5.1,6.1-6.4c1.5-0.7,3-1,4.6-1l0.2,0c1.2,0,2.4,0.2,3.6,0.6
		c0.6,0.2,1.2-0.1,1.4-0.7C31.7,14.5,31.4,13.9,30.8,13.7z"/>
	<path fill="#F1F1F2" d="M35.6,14.4l-8.9,12.7l-3.2-3.6c-0.2-0.2-0.5-0.4-0.8-0.4c-0.3,0-0.5,0.1-0.7,0.3c-0.2,0.2-0.4,0.5-0.4,0.8
		c0,0.3,0.1,0.6,0.3,0.8l4.1,4.6c0.2,0.2,0.5,0.4,0.8,0.4l0.1,0c0.3,0,0.6-0.2,0.8-0.5l9.7-13.8c0.2-0.2,0.2-0.5,0.2-0.8
		c-0.1-0.3-0.2-0.5-0.5-0.7C36.7,13.8,35.9,13.9,35.6,14.4z"/>
</g>
</svg>
