<?xml version="1.0" encoding="utf-8"?>
<!-- Generator: Adobe Illustrator 18.0.0, SVG Export Plug-In . SVG Version: 6.00 Build 0)  -->
<!DOCTYPE svg PUBLIC "-//W3C//DTD SVG 1.1//EN" "http://www.w3.org/Graphics/SVG/1.1/DTD/svg11.dtd">
<svg version="1.1" id="Layer_1" xmlns="http://www.w3.org/2000/svg" xmlns:xlink="http://www.w3.org/1999/xlink" x="0px" y="0px"
	 viewBox="0 0 37.3 28.4" enable-background="new 0 0 37.3 28.4" xml:space="preserve">
<path fill="#3FE1BF" d="M35.7,3.7c-0.9-1.5-4-1.3-8.9,0.6c0,0,0,0-0.1,0l-0.2,0.2l-0.2-0.2c-0.8-0.6-1.7-1.2-2.7-1.6
	C22,2,20.3,1.6,18.5,1.6c-5,0-9.6,2.9-11.6,7.5c-0.2,0.5,0,1.1,0.5,1.3c0.5,0.2,1.1,0,1.3-0.5c1.7-3.8,5.6-6.3,9.8-6.3
	c1.5,0,3,0.3,4.4,0.9c2.6,1.2,4.4,3,5.4,5.4l0.1,0.2l-0.2,0.2c-2.4,1.8-5.2,3.6-8.3,5.3c-3.5,2-6.8,3.6-9.8,4.8l-0.3,0.1l-0.2-0.2
	c-0.2-0.3-0.4-0.6-0.6-0.9c-0.5-0.9-0.9-1.9-1.1-2.9c0,0,0-0.1-0.1-0.1l-0.1-0.1c0,0,0-0.1,0-0.1l-0.1-0.1l-0.1-0.1
	C7.6,16,7.6,16,7.6,15.9c0,0-0.1,0-0.1,0l-0.1,0c0,0-0.1,0-0.1,0c0,0-0.1,0-0.2,0l-0.2,0c-0.1,0-0.1,0-0.2,0.1l-0.1,0.1
	c0,0-0.1,0-0.1,0.1l-0.1,0c-4.1,3.2-5.8,5.7-4.9,7.2c0.8,1.4,3,1.4,7.2-0.1c0.1,0,0.1,0,0.2-0.1l0.3-0.1l0.2,0.2
	c1.2,1.2,2.5,2.1,3.9,2.8c1.6,0.7,3.4,1.1,5.2,1.1c5,0,9.6-2.9,11.6-7.5c0.1-0.2,0.1-0.5,0-0.8c-0.1-0.2-0.3-0.4-0.5-0.6
	c-0.5-0.2-1.1,0-1.3,0.5c-1.2,2.6-3.3,4.6-6,5.6c-2.7,1-5.6,0.9-8.2-0.2c-0.8-0.4-1.7-0.9-2.4-1.5l-0.4-0.4l0.5-0.2
	c2.8-1.2,6-2.8,9.1-4.5c3.5-2,6.7-4.1,9.3-6.1c0.7-0.5,1.3-1,1.8-1.4C35.3,7,36.5,5,35.7,3.7z M7.5,21.4c-1.6,0.5-2.9,0.8-3.7,0.8
	l-0.6,0l0.3-0.5c0.3-0.5,1-1.4,2.6-2.9l0.4-0.3L6.7,19c0.2,0.5,0.4,1,0.7,1.4c0.1,0.2,0.2,0.3,0.3,0.4l0.3,0.4L7.5,21.4z M30.3,8.6
	L30,8.9l-0.2-0.4c-0.4-0.8-0.8-1.5-1.4-2.2l-0.3-0.4l0.5-0.2c2.8-1,4.3-1.1,4.8-1.1H34l-0.3,0.5C33.2,6,32,7.3,30.3,8.6z"/>
</svg>
