<?xml version="1.0" encoding="utf-8"?>
<!-- Generator: Adobe Illustrator 18.0.0, SVG Export Plug-In . SVG Version: 6.00 Build 0)  -->
<!DOCTYPE svg PUBLIC "-//W3C//DTD SVG 1.1//EN" "http://www.w3.org/Graphics/SVG/1.1/DTD/svg11.dtd">
<svg version="1.1" id="Layer_1" xmlns="http://www.w3.org/2000/svg" xmlns:xlink="http://www.w3.org/1999/xlink" x="0px" y="0px"
	 viewBox="0 0 16 19.1" enable-background="new 0 0 16 19.1" xml:space="preserve">
<g>
	<g>
		<g>
			<g>
				<path fill="#BCBEC0" d="M6.7,14.5C4.8,14,3.2,12.8,2.2,11C1.2,9.3,1,7.4,1.5,5.5c1-3.8,5-6.2,8.9-5.2l0.2,0
					c3.9,1.1,6.3,5.1,5.2,9c-1,3.8-5,6.2-8.9,5.2L6.7,14.5z M3,5.9c-0.4,1.5-0.2,3.1,0.6,4.4c0.8,1.3,2,2.3,3.5,2.7l0.1,0
					c3,0.7,6.2-1.1,7-4.1c0.8-3.1-1-6.3-4.1-7.1l-0.1,0C7,1,3.8,2.8,3,5.9z"/>
			</g>
		</g>
		<g>
			<path fill="#BCBEC0" d="M0.9,19.1c0.3,0,0.5-0.1,0.7-0.3L5.3,14c0.3-0.4,0.2-1-0.2-1.3c-0.4-0.3-1-0.2-1.3,0.2l-3.7,4.8
				c-0.3,0.4-0.2,1,0.2,1.3C0.5,19,0.7,19.1,0.9,19.1z"/>
		</g>
	</g>
</g>
</svg>
