<?xml version="1.0" encoding="utf-8"?>
<!-- Generator: Adobe Illustrator 18.0.0, SVG Export Plug-In . SVG Version: 6.00 Build 0)  -->
<!DOCTYPE svg PUBLIC "-//W3C//DTD SVG 1.1//EN" "http://www.w3.org/Graphics/SVG/1.1/DTD/svg11.dtd">
<svg version="1.1" id="Layer_1" xmlns="http://www.w3.org/2000/svg" xmlns:xlink="http://www.w3.org/1999/xlink" x="0px" y="0px"
	 viewBox="0 0 26.4 26.4" enable-background="new 0 0 26.4 26.4" xml:space="preserve">
<path fill="#E0E0E0" d="M15.4,13.2L25.9,2.7c0.6-0.6,0.6-1.6,0-2.2s-1.6-0.6-2.2,0L13.2,11L2.7,0.5c-0.6-0.6-1.6-0.6-2.2,0
	s-0.6,1.6,0,2.2L11,13.2L0.5,23.7c-0.6,0.6-0.6,1.6,0,2.2c0.3,0.3,0.7,0.5,1.1,0.5s0.8-0.2,1.1-0.5l10.5-10.5l10.5,10.5
	c0.3,0.3,0.7,0.5,1.1,0.5s0.8-0.2,1.1-0.5c0.6-0.6,0.6-1.6,0-2.2L15.4,13.2z"/>
</svg>
