<?xml version="1.0" encoding="utf-8"?>
<!-- Generator: Adobe Illustrator 18.0.0, SVG Export Plug-In . SVG Version: 6.00 Build 0)  -->
<!DOCTYPE svg PUBLIC "-//W3C//DTD SVG 1.1//EN" "http://www.w3.org/Graphics/SVG/1.1/DTD/svg11.dtd">
<svg version="1.1" id="Layer_1" xmlns="http://www.w3.org/2000/svg" xmlns:xlink="http://www.w3.org/1999/xlink" x="0px" y="0px"
	 viewBox="0 0 24.7 22.6" enable-background="new 0 0 24.7 22.6" xml:space="preserve">
<g>
	<g>
		<path fill="#F1F1F2" d="M3.1,5.9C3.4,6.1,3.8,6,4,5.8c1.8-2.8,5-4.5,8.3-4.5c3.4,0,6.5,1.7,8.4,4.6C20.8,6,21,6.1,21.2,6.1
			c0.1,0,0.2,0,0.3-0.1c0.3-0.2,0.4-0.6,0.2-0.9C19.7,1.9,16.1,0,12.3,0C8.5,0,5,1.9,2.9,5.1C2.7,5.4,2.8,5.7,3.1,5.9z"/>
		<path fill="#F1F1F2" d="M18.1,6.8c-1.1-0.7-2.5-0.8-3.8-1c-2.6-0.3-4.9-0.1-6.8,0.5C6,6.8,5.1,7.8,4.9,9.2c-0.1,1-0.1,2.1,0,3.2
			c0,0.7,0.1,1.4,0.2,2.1c0.1,0.7,0.2,1.4,1.1,2c0.5,0.4,1.2,0.6,1.8,0.9l0.1,0c1.4,0.5,2.8,0.8,4.4,0.8l0.3,0c1.9,0,3.5-0.4,5-1.1
			c0.7-0.4,1.6-0.8,1.9-1.8c0-0.1,0.1-0.3,0.1-0.4c0.1-0.4,0.1-0.8,0.1-1.2c0-0.1,0-0.3,0-0.4c0.1-1.4,0.1-2.7-0.1-3.8
			c-0.1-0.6-0.2-1.2-0.5-1.6C18.9,7.4,18.6,7.1,18.1,6.8z M18.5,13.2c0,0.2,0,0.3,0,0.5c0,0.3,0,0.7-0.1,1c0,0.1,0,0.2-0.1,0.3
			c-0.2,0.5-0.6,0.7-1.3,1c-1.3,0.6-2.8,1-4.5,1l-0.2,0c-1.4,0-2.7-0.2-3.9-0.7l-0.1,0c-0.5-0.2-1.1-0.4-1.5-0.7
			c-0.4-0.3-0.5-0.5-0.5-1.1c-0.1-0.7-0.1-1.4-0.2-2c-0.1-1.1-0.1-2,0-3c0.1-0.9,0.7-1.5,1.8-1.9C9.1,7.2,10.5,7,12,7
			c0.7,0,1.4,0,2.2,0.1c0.9,0.1,2.4,0.2,3.3,0.8c0.3,0.2,0.5,0.4,0.6,0.7c0.2,0.3,0.3,0.7,0.3,1.1C18.6,10.7,18.6,11.9,18.5,13.2z"
			/>
		<path fill="#F1F1F2" d="M3.3,15.3c-1.2-0.6-2-2-2-3.6s0.8-3,2-3.6C3.6,8,3.7,7.6,3.6,7.3C3.4,7,3,6.9,2.7,7C1.1,7.8,0,9.7,0,11.7
			c0,2,1.1,3.9,2.7,4.7c0.1,0,0.2,0.1,0.3,0.1c0.2,0,0.5-0.1,0.6-0.4C3.7,15.8,3.6,15.4,3.3,15.3z"/>
		<path fill="#F1F1F2" d="M21.9,7c-0.3-0.2-0.7,0-0.8,0.3c-0.2,0.3,0,0.7,0.3,0.8c1.2,0.6,2,2,2,3.6s-0.8,3-2,3.6
			c-0.3,0.2-0.4,0.5-0.3,0.8c0.1,0.2,0.3,0.4,0.6,0.4c0.1,0,0.2,0,0.3-0.1c1.7-0.8,2.7-2.7,2.7-4.7S23.6,7.8,21.9,7z"/>
		<path fill="#F1F1F2" d="M20.9,17.9c-0.3-0.2-0.7-0.2-0.9,0.1c-1.7,2.2-4.4,3.4-7.7,3.4c-3.1,0-5.8-1.1-7.6-3.3
			C4.4,17.8,4,17.8,3.8,18c-0.3,0.2-0.3,0.6-0.1,0.9c2.1,2.4,5,3.7,8.5,3.7c3.7,0,6.8-1.4,8.7-3.9C21.2,18.5,21.1,18.1,20.9,17.9z"
			/>
	</g>
</g>
</svg>
