<?xml version="1.0" encoding="utf-8"?>
<!-- Generator: Adobe Illustrator 18.0.0, SVG Export Plug-In . SVG Version: 6.00 Build 0)  -->
<!DOCTYPE svg PUBLIC "-//W3C//DTD SVG 1.1//EN" "http://www.w3.org/Graphics/SVG/1.1/DTD/svg11.dtd">
<svg version="1.1" id="Layer_1" xmlns="http://www.w3.org/2000/svg" xmlns:xlink="http://www.w3.org/1999/xlink" x="0px" y="0px"
	 viewBox="0 0 27.4 17.9" enable-background="new 0 0 27.4 17.9" xml:space="preserve">
<g>
	<g>
		<g>
			<path fill="#E0E0E0" d="M25.4,3.5H6.5c-0.5,0-0.8-0.4-0.8-0.8s0.4-0.8,0.8-0.8h18.9c0.5,0,0.8,0.4,0.8,0.8S25.8,3.5,25.4,3.5z"/>
		</g>
		<g>
			<path fill="#E0E0E0" d="M25.4,9.9H6.5C6.1,9.9,5.7,9.5,5.7,9s0.4-0.8,0.8-0.8h18.9c0.5,0,0.8,0.4,0.8,0.8S25.8,9.9,25.4,9.9z"/>
		</g>
		<g>
			<path fill="#E0E0E0" d="M25.4,16.3H6.5c-0.5,0-0.8-0.4-0.8-0.8s0.4-0.8,0.8-0.8h18.9c0.5,0,0.8,0.4,0.8,0.8S25.8,16.3,25.4,16.3z
				"/>
		</g>
	</g>
	<g>
		<circle fill="#E0E0E0" cx="2.1" cy="2.7" r="1"/>
		<circle fill="#E0E0E0" cx="2.1" cy="9" r="1"/>
		<circle fill="#E0E0E0" cx="2.1" cy="15.4" r="1"/>
	</g>
</g>
</svg>
