<?xml version="1.0" encoding="utf-8"?>
<!-- Generator: Adobe Illustrator 18.0.0, SVG Export Plug-In . SVG Version: 6.00 Build 0)  -->
<!DOCTYPE svg PUBLIC "-//W3C//DTD SVG 1.1//EN" "http://www.w3.org/Graphics/SVG/1.1/DTD/svg11.dtd">
<svg version="1.1" id="Layer_1" xmlns="http://www.w3.org/2000/svg" xmlns:xlink="http://www.w3.org/1999/xlink" x="0px" y="0px"
	 viewBox="0 0 24.3 17.8" enable-background="new 0 0 24.3 17.8" xml:space="preserve">
<path opacity="0.25" fill="#F1F2F2" d="M24.1,1.5c-0.3-0.5-0.9-0.7-1.7-0.7c-1.4,0-3.2,0.6-4.6,1.1c-0.1,0-0.1,0.1-0.2,0.1
	c-0.6-0.5-1.2-0.9-2-1.2C14.5,0.3,13.3,0,12.1,0C8.6,0,5.4,2.1,3.9,5.3c-0.1,0.2-0.1,0.4,0,0.6C4,6,4.1,6.2,4.3,6.2
	c0.4,0.2,0.8,0,1-0.4c1.2-2.7,3.9-4.4,6.8-4.4c1,0,2.1,0.2,3,0.6C17,3,18.2,4.3,18.9,6c-1.5,1.1-3.5,2.4-5.9,3.8
	c-2.8,1.6-5.1,2.7-7,3.4c-0.2-0.2-0.3-0.5-0.5-0.7c-0.3-0.6-0.6-1.3-0.8-2c0,0,0,0,0,0c0,0,0-0.1-0.1-0.1c0,0,0-0.1-0.1-0.1
	c0,0,0,0,0,0c0,0-0.1,0-0.1-0.1c0,0-0.1-0.1-0.1-0.1c0,0,0,0-0.1,0c-0.1,0-0.1-0.1-0.2-0.1c0,0,0,0,0,0c-0.1,0-0.2,0-0.2,0
	c0,0,0,0,0,0c0,0,0,0-0.1,0c-0.1,0-0.1,0-0.2,0.1c0,0,0,0,0,0c-2.9,2.3-4.1,4-3.4,5.1c0.3,0.5,0.8,0.7,1.6,0.7c0.8,0,2-0.3,3.5-0.8
	c0.1,0,0.2-0.1,0.4-0.1c0.8,0.8,1.7,1.5,2.8,2c1.2,0.5,2.4,0.8,3.6,0.8c1.1,0,2.1-0.2,3.2-0.6c2.2-0.8,4-2.5,5-4.7
	c0.2-0.4,0-0.8-0.4-1c-0.4-0.2-0.8,0-1,0.4c-0.8,1.8-2.3,3.2-4.1,3.9c-1.8,0.7-3.9,0.6-5.7-0.2c-0.7-0.3-1.4-0.7-1.9-1.3
	c2-0.8,4.3-2,6.6-3.3c2.5-1.4,4.7-2.9,6.5-4.3c0,0,0,0,0,0c0.4-0.3,0.9-0.7,1.2-1C24.6,3.2,24.5,2.1,24.1,1.5z M22.8,2.3
	c-0.2,0.5-1,1.5-2.7,2.8c-0.3-0.7-0.8-1.4-1.3-2c2.1-0.7,3.2-0.8,3.6-0.8C22.6,2.3,22.7,2.3,22.8,2.3z M4.3,13.2
	c0.1,0.2,0.2,0.4,0.4,0.6c-1.4,0.5-2.3,0.7-2.9,0.7c-0.1,0-0.2,0-0.3,0c0.1-0.3,0.6-1.1,2.2-2.5C3.8,12.4,4,12.8,4.3,13.2z"/>
</svg>
