<?xml version="1.0" encoding="utf-8"?>
<!-- Generator: Adobe Illustrator 18.0.0, SVG Export Plug-In . SVG Version: 6.00 Build 0)  -->
<!DOCTYPE svg PUBLIC "-//W3C//DTD SVG 1.1//EN" "http://www.w3.org/Graphics/SVG/1.1/DTD/svg11.dtd">
<svg version="1.1" id="Layer_1" xmlns="http://www.w3.org/2000/svg" xmlns:xlink="http://www.w3.org/1999/xlink" x="0px" y="0px"
	 viewBox="0 0 103.5 117.4" enable-background="new 0 0 103.5 117.4" xml:space="preserve">
<g>
	<g>
		<path fill="#EAB834" d="M67.1,103.5c-0.8,0-1.5-0.7-1.5-1.5V28.5l-14.3-24L37.6,28.8c-0.4,0.7-1.3,1-2,0.6c-0.7-0.4-1-1.3-0.6-2
			L50,0.8C50.3,0.3,50.8,0,51.3,0c0,0,0,0,0,0c0.5,0,1,0.3,1.3,0.7l15.8,26.6c0.2,0.3,0.2,0.6,0.2,1V102
			C68.6,102.8,68,103.5,67.1,103.5z"/>
	</g>
	<g>
		<path fill="#15AE8F" d="M36.3,103.4c-0.8,0-1.5-0.7-1.5-1.5V28c0-0.8,0.7-1.5,1.5-1.5h10.3c0.8,0,1.5,0.7,1.5,1.5
			s-0.7,1.5-1.5,1.5h-8.8v72.3C37.8,102.7,37.1,103.4,36.3,103.4z"/>
	</g>
	<g>
		<path fill="#3FE1BF" d="M57.4,13.2C57.4,13.2,57.4,13.2,57.4,13.2H45.6c-0.5,0-1-0.3-1.3-0.7s-0.3-1,0-1.5L50,0.8
			C50.3,0.3,50.8,0,51.3,0c0,0,0,0,0,0c0.5,0,1,0.3,1.3,0.7l5.9,10c0.2,0.3,0.3,0.6,0.3,1C58.9,12.5,58.2,13.2,57.4,13.2z
			 M48.2,10.2h6.6l-3.4-5.7L48.2,10.2z"/>
	</g>
	<g>
		<path fill="#EAB834" d="M66.1,29.5h-9.3c-0.8,0-1.5-0.7-1.5-1.5s0.7-1.5,1.5-1.5h9.3c0.8,0,1.5,0.7,1.5,1.5S67,29.5,66.1,29.5z"/>
	</g>
	<g>
		<path fill="#3FE1BF" d="M101.2,37.8c-2.7-4.9-8.8-7.5-17.6-7.5c-12.1,0-28.1,4.9-43.8,13.4C19.6,54.6,4.3,69.4,0.8,81.3
			c-1.2,4.1-1,7.6,0.6,10.6c2.7,4.9,8.7,7.5,17.5,7.5c4.6,0,10.1-0.8,15.9-2.2v-3.1C29,95.6,23.7,96.4,19,96.4
			c-7.6,0-12.9-2.1-15-5.9c-1.2-2.2-1.3-5-0.4-8.3C7,71,21.7,56.9,41.2,46.3c15.1-8.2,30.9-13,42.5-13c7.6,0,12.8,2.1,14.9,5.9
			c4.8,8.8-8.3,26.3-29.9,39.9v3.5C93,67.8,107,48.5,101.2,37.8z"/>
	</g>
	<g>
		<path fill="#3FE1BF" d="M46.6,103c-0.8,0-1.5-0.7-1.5-1.5V28c0-0.8,0.7-1.5,1.5-1.5h10.3c0.8,0,1.5,0.7,1.5,1.5v72.8
			c0,0.8-0.7,1.5-1.5,1.5s-1.5-0.7-1.5-1.5V29.5h-7.3v71.9C48.1,102.3,47.4,103,46.6,103z"/>
	</g>
	<g>
		<path fill="#EAB834" d="M68.1,45.8l-1.4-0.8v3.4l0.2,0.1c23.4,13.9,37.7,32.1,32.6,41.5c-2.1,3.9-7.3,5.9-14.9,5.9c0,0,0,0,0,0
			c-11.5,0-27.4-4.9-42.5-13C22.6,72.5,7.9,58.5,4.6,47.3c-1-3.3-0.8-6.1,0.4-8.3c2-3.8,7.4-5.8,15-5.8c4.4,0,9.4,0.7,14.8,2V32
			c-5.4-1.3-10.4-1.9-14.8-1.9c-8.9,0-15,2.6-17.6,7.4c-1.6,3-1.8,6.5-0.6,10.6c3.5,11.9,18.8,26.7,39,37.6
			c15.7,8.5,31.6,13.4,43.8,13.4h0c8.9,0,15-2.6,17.6-7.5C108.1,80.5,93.5,60.9,68.1,45.8z"/>
	</g>
	<g>
		<path fill="#15AE8F" d="M51.7,117.4c-9.2,0-16.7-6.9-16.9-15.3c0-0.1,0-0.1,0-0.2l0,0c0,0,0-0.1,0-0.2c0-0.9,0.8-1.6,1.6-1.5
			c0,0,0.1,0,0.1,0h30.6c0.8,0,1.5,0.7,1.5,1.5C68.6,110.4,61.1,117.4,51.7,117.4z M37.9,103.3c0.8,6.2,6.7,11.1,13.8,11.1
			c7.1,0,13-4.9,13.8-11.1H37.9z"/>
	</g>
</g>
</svg>
