<?xml version="1.0" encoding="utf-8"?>
<!-- Generator: Adobe Illustrator 18.0.0, SVG Export Plug-In . SVG Version: 6.00 Build 0)  -->
<!DOCTYPE svg PUBLIC "-//W3C//DTD SVG 1.1//EN" "http://www.w3.org/Graphics/SVG/1.1/DTD/svg11.dtd">
<svg version="1.1" id="Layer_1" xmlns="http://www.w3.org/2000/svg" xmlns:xlink="http://www.w3.org/1999/xlink" x="0px" y="0px"
	 viewBox="0 0 22.9 22.9" enable-background="new 0 0 22.9 22.9" xml:space="preserve">
<g>
	<g>
		<circle fill="#F1F1F2" cx="4.7" cy="19.7" r="1.6"/>
	</g>
	<g>
		<circle fill="#F1F1F2" cx="20.6" cy="6.2" r="2.2"/>
	</g>
	<g>
		<path fill="#F1F1F2" d="M2.4,18c-0.2,0-0.4-0.1-0.5-0.3c-0.9-1.4-1.5-3-1.7-4.6C-0.3,10,0.5,7,2.3,4.6c1.8-2.4,4.5-4,7.6-4.5
			c2.5-0.3,5,0.1,7.1,1.3c0.6,0.3,1.2,0.7,1.7,1.2c0.3,0.2,0.3,0.6,0.1,0.9c-0.2,0.3-0.6,0.3-0.9,0.1c-0.5-0.4-1-0.7-1.5-1
			c-1.9-1.1-4.1-1.5-6.3-1.2C7.4,1.8,5,3.2,3.3,5.3c-1.6,2.2-2.3,4.8-2,7.5c0.2,1.5,0.7,2.9,1.5,4.1c0.2,0.3,0.1,0.7-0.2,0.9
			C2.6,17.9,2.5,18,2.4,18z"/>
	</g>
	<g>
		<path fill="#F1F1F2" d="M11.5,22.9c-0.4,0-0.8,0-1.3-0.1c-0.4,0-0.8-0.1-1.3-0.2c-0.6-0.1-1.2-0.3-1.8-0.5
			c-0.3-0.1-0.5-0.5-0.4-0.8c0.1-0.3,0.5-0.5,0.8-0.4c0.5,0.2,1,0.4,1.6,0.5c0.4,0.1,0.7,0.1,1.1,0.2c0.8,0.1,1.7,0.1,2.6,0
			c2.7-0.4,5.1-1.8,6.7-4c1.6-2.2,2.3-4.8,2-7.5c0-0.4,0.2-0.7,0.5-0.7c0.4,0,0.7,0.2,0.7,0.5c0.4,3-0.4,6.1-2.2,8.5
			c-1.8,2.4-4.5,4-7.6,4.5C12.5,22.9,12,22.9,11.5,22.9z"/>
	</g>
	<g>
		<path fill="#F1F1F2" d="M11.5,17.6c-3.3,0-6-2.7-6.1-5.9C5.3,8.3,8,5.6,11.3,5.5l0.1,0c3.3,0,6,2.7,6.1,5.9c0,1.6-0.6,3.2-1.7,4.3
			c-1.1,1.2-2.6,1.8-4.2,1.9L11.5,17.6z M11.5,6.8l-0.1,0C8.7,6.8,6.6,9,6.7,11.6c0.1,2.6,2.2,4.7,4.8,4.7l0.1,0
			c1.3,0,2.5-0.6,3.3-1.5c0.9-0.9,1.3-2.1,1.3-3.4C16.2,8.9,14,6.8,11.5,6.8z"/>
	</g>
</g>
</svg>
